<?xml version="1.0" standalone="no"?>
<!DOCTYPE svg PUBLIC "-//W3C//DTD SVG 20010904//EN"
 "http://www.w3.org/TR/2001/REC-SVG-20010904/DTD/svg10.dtd">
<svg version="1.0" xmlns="http://www.w3.org/2000/svg"
 width="3000.000000pt" height="3000.000000pt" viewBox="0 0 3000.000000 3000.000000"
 preserveAspectRatio="xMidYMid meet">

<g transform="translate(0.000000,3000.000000) scale(0.100000,-0.100000)"
fill="#000000" stroke="none">
<path d="M14420 29989 c-3050 -122 -5932 -1138 -8370 -2952 -2172 -1616 -3870
-3792 -4909 -6290 -556 -1336 -921 -2790 -1065 -4237 -54 -541 -71 -890 -71
-1510 0 -530 8 -757 41 -1170 183 -2347 900 -4580 2113 -6585 1481 -2450 3637
-4429 6206 -5700 1713 -846 3545 -1349 5465 -1499 413 -33 640 -41 1170 -41
530 0 757 8 1170 41 2347 183 4580 900 6585 2113 1650 998 3111 2322 4263
3866 851 1140 1523 2365 2020 3680 499 1322 806 2705 916 4125 33 423 40 630
40 1165 1 536 -7 759 -40 1175 -222 2834 -1222 5502 -2917 7780 -1616 2172
-3792 3870 -6290 4909 -1509 628 -3138 1005 -4792 1111 -460 29 -1087 37
-1535 19z m2863 -2444 c1548 -279 3066 -859 4385 -1677 81 -50 162 -100 180
-111 23 -14 31 -25 27 -36 -4 -9 -69 -198 -145 -421 -76 -223 -227 -664 -335
-980 -108 -316 -285 -831 -392 -1145 -107 -313 -221 -646 -253 -740 -91 -264
-427 -1247 -575 -1680 -148 -433 -395 -1154 -1160 -3390 -284 -830 -572 -1672
-640 -1870 -68 -198 -245 -715 -393 -1150 -149 -434 -430 -1256 -625 -1825
-195 -569 -356 -1042 -360 -1050 -3 -8 -6 3617 -6 8056 l-1 8071 23 -4 c12 -2
134 -24 270 -48z m-5635 -437 c-117 -316 -164 -442 -418 -1128 -128 -344 -286
-771 -352 -950 -115 -311 -154 -415 -426 -1150 -66 -179 -298 -804 -515 -1390
-217 -586 -465 -1254 -550 -1485 -86 -231 -296 -798 -467 -1260 -343 -923
-603 -1625 -745 -2010 -111 -301 -455 -1229 -745 -2010 -116 -313 -229 -617
-250 -675 -21 -58 -275 -744 -565 -1525 -290 -781 -544 -1467 -565 -1525 -21
-58 -184 -499 -363 -980 -178 -481 -519 -1401 -757 -2045 -238 -643 -436
-1174 -440 -1178 -9 -11 -202 279 -385 578 -722 1181 -1254 2503 -1554 3860
-541 2451 -349 5023 548 7348 640 1659 1623 3169 2886 4432 1515 1514 3371
2618 5415 3218 85 26 184 55 220 66 120 36 118 49 28 -191z m1458 -24716 c-5
-5 -319 48 -536 89 -1558 301 -3071 904 -4405 1754 -60 38 -387 255 -394 261
-3 3 110 324 524 1489 125 351 415 1167 772 2170 162 457 452 1271 643 1810
192 539 419 1178 505 1420 152 428 479 1348 810 2280 90 253 233 656 318 895
85 239 301 847 480 1350 179 503 385 1082 457 1285 72 204 278 782 457 1285
179 503 335 942 347 975 l21 60 3 -8559 c1 -4708 0 -8561 -2 -8564z m10604
10186 l-1 -6893 -152 -137 c-1451 -1303 -3083 -2222 -4922 -2771 -253 -76
-498 -140 -804 -212 -21 -5 -23 -4 -17 21 4 15 103 302 221 638 117 336 396
1135 620 1776 224 641 440 1260 480 1375 60 172 678 1942 1215 3480 61 176
359 1029 662 1895 737 2111 743 2128 1108 3175 62 176 177 507 257 735 80 228
178 510 218 626 41 117 124 355 185 530 62 176 194 555 295 844 101 289 233
669 295 844 281 805 330 948 330 956 0 6 2 10 5 10 3 0 5 -3102 5 -6892z"/>
</g>
</svg>
