<?xml version="1.0" standalone="no"?>
<!DOCTYPE svg PUBLIC "-//W3C//DTD SVG 20010904//EN"
 "http://www.w3.org/TR/2001/REC-SVG-20010904/DTD/svg10.dtd">
<svg version="1.0" xmlns="http://www.w3.org/2000/svg"
 width="3000.000000pt" height="112.000000pt" viewBox="0 0 3000.000000 112.000000"
 preserveAspectRatio="xMidYMid meet">

<g transform="translate(0.000000,112.000000) scale(0.100000,-0.100000)"
fill="#000000" stroke="none">
<path d="M370 1102 c-129 -35 -243 -137 -312 -279 -41 -85 -42 -92 -46 -204
-10 -271 78 -454 267 -553 107 -56 248 -58 360 -5 68 33 171 141 209 219 105
216 82 483 -57 658 -112 141 -274 204 -421 164z m195 -104 c322 -123 341 -697
28 -853 -49 -24 -70 -29 -133 -29 -135 0 -239 74 -312 221 l-43 86 0 141 0
141 37 77 c93 196 258 280 423 216z"/>
<path d="M380 885 c-215 -97 -226 -523 -17 -624 51 -25 141 -28 190 -7 45 19
97 73 119 124 21 47 17 78 -11 87 -28 9 -45 -3 -64 -44 -25 -56 -86 -95 -136
-88 -56 7 -87 32 -117 93 -69 141 -21 337 91 374 54 18 95 -1 156 -71 37 -43
58 -59 73 -57 17 2 21 9 18 38 -4 60 -43 122 -96 155 -59 36 -150 45 -206 20z"/>
<path d="M4548 1097 c-105 -40 -183 -113 -236 -221 -41 -85 -52 -147 -52 -299
0 -169 11 -235 54 -322 130 -262 427 -318 618 -117 62 65 98 130 119 212 18
71 18 344 1 419 -32 136 -124 260 -229 308 -70 33 -213 43 -275 20z m247 -151
c97 -57 145 -163 153 -338 8 -190 -27 -308 -115 -389 -56 -51 -102 -70 -170
-70 -72 0 -130 29 -193 97 -73 81 -85 128 -85 334 l0 165 33 67 c58 118 143
170 264 164 50 -2 78 -10 113 -30z"/>
<path d="M5293 1070 c-23 -17 -44 -37 -47 -46 -3 -9 -9 -60 -12 -114 l-7 -99
-41 -3 -41 -3 0 -50 0 -50 43 -3 42 -3 0 -325 0 -324 50 0 50 0 0 325 0 325
43 0 c51 0 67 13 67 55 0 43 -16 55 -71 55 l-46 0 13 77 c14 81 23 93 65 93
29 0 39 15 39 60 0 51 -8 60 -59 60 -37 0 -56 -7 -88 -30z"/>
<path d="M5660 1089 c-64 -26 -88 -72 -98 -186 -7 -87 -7 -88 -36 -93 -60 -10
-56 -110 4 -110 l30 0 0 -325 0 -325 55 0 55 0 0 324 0 325 53 3 c48 3 52 5
55 30 5 43 -14 67 -58 74 -46 8 -56 28 -47 95 7 51 30 77 71 81 26 3 31 7 34
34 2 16 -2 42 -7 57 -9 23 -16 27 -48 26 -21 0 -49 -5 -63 -10z"/>
<path d="M10684 1076 c-158 -58 -227 -146 -228 -291 -1 -89 23 -152 74 -199
57 -51 100 -70 276 -121 220 -64 251 -85 234 -162 -24 -104 -179 -146 -308
-81 -40 20 -51 32 -77 86 l-30 62 -95 -2 -95 -3 0 -51 c1 -100 100 -218 222
-264 94 -35 203 -45 305 -27 202 35 296 123 306 287 6 98 -10 152 -58 204 -52
56 -135 95 -308 144 -207 59 -246 88 -227 168 18 72 114 109 221 85 63 -14
107 -48 134 -101 23 -44 38 -50 149 -50 l83 0 -6 38 c-19 102 -101 209 -199
256 -99 48 -276 58 -373 22z"/>
<path d="M12162 1089 c-154 -30 -298 -168 -347 -329 -40 -135 -25 -363 31
-477 39 -81 143 -186 220 -224 56 -28 78 -33 164 -37 176 -8 276 24 366 120
61 64 92 121 101 184 8 59 0 64 -105 64 l-82 0 -26 -55 c-50 -105 -146 -151
-259 -126 -78 18 -133 62 -173 141 -81 162 -51 398 65 500 57 50 98 63 183 58
86 -5 143 -40 178 -108 31 -62 45 -70 123 -70 86 0 99 5 99 41 0 94 -105 235
-212 284 -88 40 -224 54 -326 34z"/>
<path d="M15375 1082 c-163 -56 -297 -201 -325 -351 -13 -71 -13 -262 1 -337
6 -32 25 -86 42 -119 42 -78 147 -182 222 -220 58 -29 64 -30 200 -30 139 0
141 0 208 33 185 91 287 272 287 507 0 217 -101 400 -263 480 -113 55 -274 71
-372 37z m252 -193 c81 -39 142 -136 163 -261 36 -206 -98 -428 -257 -428 -66
0 -128 23 -174 67 -58 54 -86 117 -100 225 -15 108 -7 187 26 254 45 92 95
136 185 165 35 11 108 1 157 -22z"/>
<path d="M18473 1085 c-224 -63 -357 -256 -357 -520 -1 -55 5 -125 13 -155 37
-151 141 -294 254 -350 53 -26 78 -31 167 -36 114 -7 209 5 266 32 95 45 194
174 210 272 8 53 -9 62 -114 62 l-79 0 -18 -45 c-22 -58 -60 -104 -102 -121
-44 -19 -165 -18 -211 2 -79 33 -131 104 -158 221 -43 183 30 384 161 444 53
24 147 24 200 0 49 -22 99 -76 115 -125 l12 -36 83 0 c46 0 90 3 99 6 53 20
-47 230 -136 286 -104 64 -296 94 -405 63z"/>
<path d="M7660 570 l0 -520 55 0 55 0 0 520 0 520 -55 0 -55 0 0 -520z"/>
<path d="M20474 1083 l-41 -4 -6 -121 c-4 -67 -7 -298 -7 -515 l0 -393 320 0
320 0 0 60 0 60 -255 0 -255 0 0 170 0 170 233 2 232 3 0 60 0 60 -232 3 -233
2 0 160 0 160 248 2 247 3 3 63 3 62 -268 -2 c-147 -1 -286 -3 -309 -5z"/>
<path d="M22390 570 l0 -520 45 0 45 0 0 520 0 520 -45 0 -45 0 0 -520z"/>
<path d="M25800 571 l0 -521 55 0 55 0 0 225 0 225 58 0 c31 0 111 -5 177 -10
108 -10 122 -13 142 -35 32 -36 42 -81 55 -252 l12 -153 73 0 73 0 -21 52
c-16 40 -22 88 -28 198 -8 154 -14 174 -64 228 l-31 32 32 33 c54 55 76 120
76 217 0 99 -23 159 -80 209 -59 52 -114 63 -361 68 l-223 6 0 -522z m490 354
c37 -36 53 -91 48 -168 -9 -118 -64 -146 -285 -147 l-143 0 0 176 0 175 174
-3 175 -3 31 -30z"/>
<path d="M27280 571 l0 -521 56 0 57 0 -5 510 c-3 281 -8 513 -10 515 -3 3
-26 8 -51 11 l-47 7 0 -522z"/>
<path d="M16160 560 l0 -516 193 4 c378 6 445 21 540 121 100 105 127 187 127
389 0 209 -37 322 -128 403 -102 90 -182 107 -519 111 l-213 3 0 -515z m495
319 c51 -15 108 -74 130 -136 39 -111 28 -326 -21 -411 -41 -70 -135 -102
-306 -102 l-78 0 0 336 0 337 118 -6 c64 -3 135 -11 157 -18z"/>
<path d="M8270 560 l0 -510 100 0 100 0 0 78 c0 108 -18 584 -26 662 -10 110
11 59 66 -160 46 -182 132 -515 146 -563 5 -16 17 -17 117 -15 l112 3 28 105
c15 58 61 236 102 395 l74 290 -5 -295 c-2 -162 -7 -341 -9 -398 l-6 -102 106
0 105 0 0 510 0 510 -155 0 -154 0 -15 -52 c-8 -29 -49 -183 -90 -343 -76
-295 -93 -352 -102 -343 -2 3 -45 162 -95 354 -49 192 -92 357 -95 367 -5 15
-21 17 -155 17 l-149 0 0 -510z"/>
<path d="M9470 737 c0 -473 11 -539 110 -631 68 -63 129 -80 295 -80 163 0
227 17 292 77 101 93 113 161 113 634 l0 333 -109 0 -109 0 -4 -382 c-5 -428
-6 -436 -73 -464 -45 -18 -175 -18 -220 0 -67 29 -69 36 -73 464 l-4 382 -109
0 -109 0 0 -333z"/>
<path d="M11420 560 l0 -510 110 0 110 0 0 510 0 510 -110 0 -110 0 0 -510z"/>
<path d="M13200 561 l0 -511 110 0 110 0 0 175 0 175 33 0 c128 1 289 21 330
40 68 32 123 85 154 148 24 49 28 69 28 142 0 150 -55 254 -162 307 l-58 28
-272 3 -273 4 0 -511z m401 328 c80 -12 120 -35 142 -82 35 -73 10 -155 -57
-190 -28 -15 -66 -21 -152 -25 l-114 -5 0 161 0 161 58 -5 c31 -3 87 -10 123
-15z"/>
<path d="M14080 560 l0 -510 110 0 110 0 0 194 0 195 46 7 c68 10 192 -3 228
-24 44 -25 63 -73 75 -187 6 -55 14 -119 17 -142 l6 -43 104 0 c56 0 105 4
108 9 6 10 -17 210 -35 300 -14 74 -46 130 -86 156 -18 11 -32 23 -33 26 0 3
22 20 50 38 66 43 101 102 107 185 8 96 -17 169 -77 228 -76 73 -102 78 -442
78 l-288 0 0 -510z m524 315 c43 -20 76 -67 76 -105 0 -14 -9 -44 -20 -68 -28
-61 -64 -74 -227 -80 l-133 -5 0 126 c0 69 3 133 7 142 5 16 20 17 132 13 94
-3 136 -9 165 -23z"/>
<path d="M17170 743 c1 -351 10 -505 35 -553 22 -42 79 -96 128 -121 67 -35
135 -49 237 -49 151 0 244 33 317 113 72 78 75 97 80 545 l5 392 -111 0 -111
0 0 -388 0 -388 -37 -36 c-45 -43 -79 -58 -136 -58 -60 0 -102 14 -147 50
l-40 32 0 394 0 394 -110 0 -110 0 0 -327z"/>
<path d="M19090 980 l0 -89 158 -3 157 -3 3 -418 2 -417 110 0 110 0 0 420 0
420 145 0 145 0 0 90 0 90 -415 0 -415 0 0 -90z"/>
<path d="M1469 1046 c-127 -45 -177 -117 -194 -280 l-7 -66 56 0 56 0 0 38 c0
141 94 233 208 203 68 -19 112 -89 112 -181 0 -89 -35 -145 -135 -218 -156
-112 -196 -147 -229 -195 -41 -59 -70 -142 -81 -230 l-7 -57 281 0 281 0 0 55
0 55 -220 0 c-145 0 -220 4 -220 10 0 25 31 81 66 120 21 23 84 73 141 112
179 121 233 203 233 348 0 100 -24 165 -85 225 -71 72 -165 94 -256 61z"/>
<path d="M2122 1049 c-43 -13 -112 -81 -139 -140 -41 -87 -54 -159 -60 -319
-13 -377 91 -573 296 -558 106 8 179 79 221 217 60 193 45 523 -30 671 -58
114 -169 163 -288 129z m123 -113 c43 -18 80 -74 102 -156 13 -50 17 -104 17
-235 0 -233 -26 -330 -105 -383 -77 -53 -163 -1 -202 123 -19 62 -22 92 -22
260 0 152 3 201 17 246 23 73 55 120 98 141 42 22 51 22 95 4z"/>
<path d="M2780 1051 c-128 -39 -192 -127 -206 -281 l-7 -70 51 0 c57 0 54 -4
67 90 8 62 47 124 87 141 45 19 109 16 149 -7 89 -51 106 -223 31 -308 -9 -10
-75 -63 -147 -116 -133 -98 -165 -131 -204 -209 -23 -44 -51 -155 -51 -203 l0
-28 280 0 280 0 0 55 0 55 -220 0 c-245 0 -237 -3 -200 69 27 54 67 92 189
176 189 131 226 188 226 345 0 78 -4 104 -24 148 -52 116 -183 178 -301 143z"/>
<path d="M3399 1042 c-114 -47 -167 -125 -176 -261 l-6 -81 50 0 50 0 7 56
c12 105 51 167 118 185 52 14 104 2 144 -33 41 -36 58 -85 56 -162 -3 -92 -31
-129 -170 -230 -198 -142 -249 -216 -270 -389 l-8 -67 283 0 283 0 0 55 0 55
-226 0 -225 0 7 23 c24 80 62 120 209 222 137 95 166 125 201 199 67 144 20
336 -98 409 -63 39 -160 47 -229 19z"/>
<path d="M5887 1053 c-4 -3 -7 -30 -7 -59 0 -50 2 -54 27 -60 14 -4 33 -2 42
3 20 12 27 89 10 109 -12 14 -60 19 -72 7z"/>
<path d="M6744 1048 c-4 -6 -7 -31 -7 -56 0 -46 12 -62 49 -62 30 0 44 20 44
65 0 23 -5 46 -12 53 -15 15 -65 16 -74 0z"/>
<path d="M23931 1046 c-17 -20 -10 -96 10 -109 9 -5 27 -7 41 -4 29 8 42 47
29 93 -6 23 -14 30 -38 32 -17 2 -35 -3 -42 -12z"/>
<path d="M21960 810 c-174 -60 -257 -332 -179 -588 27 -86 99 -162 171 -180
62 -16 131 -15 171 2 71 29 146 144 150 227 2 32 0 34 -36 37 -47 4 -60 -6
-76 -57 -32 -109 -181 -147 -238 -62 -33 48 -44 93 -50 201 -9 154 30 265 107
305 64 33 143 7 173 -58 9 -19 17 -40 17 -45 0 -23 33 -42 72 -42 l40 0 -7 47
c-16 106 -92 200 -180 222 -58 15 -70 14 -135 -9z"/>
<path d="M24960 816 c-96 -26 -158 -88 -197 -200 -27 -76 -26 -317 2 -401 26
-80 99 -156 167 -173 102 -26 202 -5 262 55 34 34 96 145 96 172 0 8 -16 11
-47 9 -42 -3 -49 -7 -78 -48 -36 -52 -102 -90 -156 -90 -21 0 -50 10 -70 23
-40 26 -87 114 -91 171 -4 53 1 54 251 55 l203 1 -7 73 c-20 196 -91 317 -208
352 -59 18 -67 18 -127 1z m127 -125 c48 -22 74 -65 92 -149 6 -29 11 -55 11
-58 0 -3 -72 -4 -160 -2 -204 4 -208 7 -161 102 57 117 124 149 218 107z"/>
<path d="M29660 817 c-98 -27 -160 -89 -202 -205 -30 -81 -32 -290 -4 -376 28
-83 73 -146 126 -176 38 -21 58 -25 130 -25 97 0 145 19 197 79 33 36 77 141
68 157 -4 5 -24 9 -45 9 -37 0 -42 -4 -75 -56 -63 -98 -166 -113 -249 -36 -39
37 -56 81 -56 147 l0 55 220 0 221 0 -6 50 c-3 28 -7 73 -10 101 -21 192 -164
317 -315 276z m139 -134 c39 -28 71 -99 71 -155 l0 -48 -160 0 -160 0 0 40 c0
23 9 57 19 78 20 38 74 95 101 106 27 10 102 -1 129 -21z"/>
<path d="M6259 793 c-65 -34 -108 -87 -135 -169 -16 -48 -19 -88 -19 -219 l0
-160 33 -67 c62 -126 172 -174 309 -133 35 10 61 27 84 52 39 45 77 126 81
173 l3 35 -45 0 c-43 0 -45 -1 -66 -46 -59 -123 -161 -155 -234 -73 -38 44
-47 66 -61 154 -21 137 24 308 93 350 74 45 153 14 195 -76 27 -59 57 -80 101
-69 22 5 24 10 18 48 -3 23 -21 71 -39 107 -28 57 -38 68 -86 93 -42 21 -69
27 -116 27 -47 0 -74 -6 -116 -27z"/>
<path d="M7110 793 c-47 -25 -60 -38 -87 -92 -18 -34 -33 -76 -33 -92 0 -28 2
-29 48 -29 48 0 49 1 60 39 16 51 57 91 96 93 125 6 176 -28 176 -115 0 -69
-12 -75 -233 -122 -95 -20 -129 -46 -156 -121 -64 -168 23 -323 180 -324 60 0
103 15 164 58 33 24 50 31 53 22 11 -31 59 -71 92 -76 44 -6 59 4 69 49 10 40
4 53 -24 58 -26 5 -32 65 -34 314 -2 253 -13 288 -106 334 -36 18 -69 26 -129
29 -74 4 -86 1 -136 -25z m260 -442 c0 -107 -22 -148 -107 -198 -95 -55 -181
-17 -191 86 -5 59 11 92 58 116 24 12 202 62 233 64 4 1 7 -30 7 -68z"/>
<path d="M23435 808 c-91 -32 -134 -101 -135 -216 0 -129 28 -158 222 -221
126 -42 148 -59 148 -117 0 -61 -37 -102 -102 -110 -100 -14 -167 22 -187 100
-11 47 -31 58 -81 46 -18 -4 -26 -14 -28 -33 -5 -40 45 -142 90 -183 l40 -36
130 4 130 3 47 51 c52 57 71 105 71 184 0 104 -38 142 -206 205 -117 44 -132
51 -161 78 -27 25 -29 49 -6 88 50 84 212 74 244 -15 14 -40 41 -53 85 -42 24
6 26 10 21 48 -8 61 -55 129 -107 156 -49 24 -159 30 -215 10z"/>
<path d="M26765 796 c-123 -57 -181 -199 -172 -416 6 -145 23 -193 94 -270 65
-71 100 -85 198 -77 127 9 192 62 245 195 15 40 5 52 -45 52 -36 0 -50 -9 -59
-35 -8 -28 -51 -72 -88 -91 -40 -21 -120 -14 -156 13 -38 28 -70 98 -78 166
l-7 57 232 0 233 0 -6 28 c-3 15 -10 61 -17 102 -31 201 -118 299 -264 300
-42 0 -75 -7 -110 -24z m175 -101 c40 -21 67 -63 86 -135 8 -34 14 -63 12 -65
-2 -1 -78 -6 -170 -10 -116 -5 -168 -4 -168 3 0 6 5 33 11 60 25 120 140 193
229 147z"/>
<path d="M27695 801 c-118 -53 -175 -181 -175 -389 0 -137 13 -199 53 -259 49
-72 94 -103 170 -116 129 -22 222 22 288 138 36 62 38 92 5 101 -37 9 -68 1
-80 -21 -30 -54 -51 -77 -86 -95 -104 -53 -208 8 -240 141 -20 83 -19 83 235
87 l215 3 0 42 c0 61 -26 171 -53 230 -52 112 -116 157 -227 157 -42 0 -79 -7
-105 -19z m158 -105 c60 -25 89 -72 112 -183 l7 -33 -144 1 c-79 1 -154 4
-168 8 -32 9 -36 32 -15 87 41 108 124 156 208 120z"/>
<path d="M28350 807 c-52 -17 -126 -94 -140 -145 -16 -63 -7 -82 41 -82 34 0
41 4 49 28 29 79 65 105 146 104 102 -1 138 -38 127 -132 -3 -30 -7 -56 -8
-58 -1 -1 -39 -9 -84 -17 -146 -26 -201 -45 -242 -86 -93 -93 -87 -289 11
-359 66 -47 213 -32 284 30 41 36 50 37 64 6 25 -56 115 -78 154 -38 19 18 20
25 10 47 -7 14 -25 31 -41 36 l-29 10 -4 267 c-4 306 -5 313 -93 367 -42 26
-59 30 -129 32 -45 1 -97 -3 -116 -10z m224 -409 c17 -65 -1 -151 -41 -199
-32 -37 -95 -68 -140 -69 -87 0 -149 147 -85 202 19 17 107 50 192 72 71 19
67 19 74 -6z"/>
<path d="M28980 799 c-80 -36 -113 -79 -125 -162 -11 -71 2 -133 36 -171 30
-34 65 -52 202 -101 101 -36 137 -65 137 -112 0 -49 -16 -72 -63 -94 -50 -22
-105 -24 -150 -5 -40 17 -61 41 -77 89 -8 26 -18 38 -36 42 -13 3 -36 8 -50
11 -27 5 -27 5 -21 -45 7 -55 38 -134 65 -164 9 -11 29 -25 44 -33 40 -21 166
-29 225 -15 103 25 173 120 173 236 0 108 -48 155 -222 217 -135 47 -154 58
-163 97 -14 64 45 121 125 121 55 0 95 -22 125 -70 25 -39 56 -55 92 -48 66
13 -30 194 -115 218 -61 17 -152 12 -202 -11z"/>
<path d="M5877 803 c-4 -3 -7 -174 -7 -380 l0 -373 50 0 50 0 0 380 0 380 -43
0 c-24 0 -47 -3 -50 -7z"/>
<path d="M6730 430 l0 -380 55 0 55 0 0 374 0 373 -37 7 c-80 13 -73 51 -73
-374z"/>
<path d="M21148 804 c-3 -3 39 -85 93 -182 54 -97 99 -181 99 -187 0 -5 -47
-93 -105 -195 l-104 -185 67 -3 c37 -2 68 1 69 5 12 33 130 238 140 241 6 2
42 -48 79 -112 41 -70 77 -119 91 -125 34 -15 103 -14 103 2 0 11 -89 180
-170 322 l-28 50 100 178 c69 122 98 181 91 188 -7 7 -29 8 -57 4 -55 -9 -70
-25 -141 -157 -26 -49 -51 -90 -55 -93 -5 -3 -39 53 -77 125 l-68 130 -61 0
c-33 0 -63 -3 -66 -6z"/>
<path d="M22660 503 c0 -184 4 -323 11 -346 24 -89 99 -133 212 -125 53 4 61
8 105 51 26 26 51 47 55 47 4 0 7 -18 7 -40 l0 -40 53 0 54 0 -5 372 c-2 205
-5 374 -7 375 -1 2 -22 6 -47 9 l-45 6 -6 -223 c-6 -241 -17 -323 -50 -381
-49 -89 -181 -89 -223 0 -14 31 -18 79 -22 319 l-5 283 -43 0 -44 0 0 -307z"/>
<path d="M23922 798 c-9 -9 -12 -100 -12 -380 l0 -368 55 0 55 0 -2 378 -3
377 -40 3 c-23 2 -46 -3 -53 -10z"/>
<path d="M24115 800 c-3 -5 42 -168 100 -362 58 -194 108 -361 111 -370 4 -15
17 -18 64 -18 l58 0 16 48 c26 79 173 563 191 630 21 72 14 84 -40 80 -44 -4
-63 -47 -138 -313 -36 -126 -70 -241 -75 -255 -12 -30 -10 -33 -51 110 -25 90
-44 162 -112 423 l-10 37 -54 0 c-30 0 -56 -4 -60 -10z"/>
</g>
</svg>
