<?xml version="1.0" standalone="no"?>
<!DOCTYPE svg PUBLIC "-//W3C//DTD SVG 20010904//EN"
 "http://www.w3.org/TR/2001/REC-SVG-20010904/DTD/svg10.dtd">
<svg version="1.0" xmlns="http://www.w3.org/2000/svg"
 width="10000.000000pt" height="1018.000000pt" viewBox="0 0 10000.000000 1018.000000"
 preserveAspectRatio="xMidYMid meet">

<g transform="translate(0.000000,1018.000000) scale(0.100000,-0.100000)"
fill="#000000" stroke="none">
<path d="M4245 10158 c-4 -13 -13 -36 -20 -53 -8 -16 -40 -91 -70 -165 -86
-206 -97 -233 -111 -265 -26 -59 -103 -241 -122 -290 -11 -27 -68 -165 -127
-305 -59 -140 -122 -291 -140 -335 -18 -44 -58 -138 -88 -210 -71 -169 -232
-553 -264 -630 -14 -33 -31 -73 -38 -90 -7 -16 -29 -68 -48 -115 -44 -106
-115 -275 -132 -315 -7 -16 -30 -70 -50 -120 -21 -49 -43 -103 -51 -120 -7
-16 -25 -59 -39 -95 -15 -36 -33 -78 -40 -95 -7 -16 -30 -70 -50 -120 -21 -49
-45 -106 -54 -125 -9 -19 -16 -37 -16 -40 -1 -7 -57 -143 -165 -395 -4 -11
-27 -65 -50 -120 -23 -55 -48 -113 -55 -130 -7 -16 -23 -55 -35 -85 -27 -68
-47 -116 -65 -155 -8 -16 -26 -59 -40 -95 -14 -36 -32 -78 -40 -95 -7 -16 -30
-70 -50 -120 -20 -49 -40 -97 -45 -106 -4 -8 -20 -47 -35 -85 -15 -38 -36 -86
-46 -106 -10 -21 -16 -38 -13 -38 3 0 -2 -12 -10 -27 -9 -16 -27 -57 -41 -93
-14 -36 -32 -78 -40 -95 -17 -37 -36 -82 -65 -155 -12 -30 -28 -68 -36 -85 -7
-16 -32 -75 -55 -130 -22 -55 -45 -109 -49 -120 -50 -120 -65 -156 -81 -190
-22 -50 -83 -198 -84 -205 -1 -3 -6 -16 -13 -30 -24 -54 -102 -239 -132 -315
-17 -44 -35 -88 -40 -97 -5 -9 -25 -54 -43 -100 -19 -46 -75 -180 -125 -298
-179 -427 -375 -896 -399 -955 -14 -33 -42 -100 -63 -150 -21 -49 -62 -146
-90 -215 -29 -69 -60 -143 -70 -165 -10 -22 -32 -76 -50 -120 -18 -44 -49
-120 -70 -170 -22 -49 -62 -146 -90 -215 -29 -69 -60 -143 -69 -165 -23 -53
-48 -112 -116 -275 -30 -74 -62 -148 -69 -165 -8 -16 -31 -70 -51 -120 -20
-49 -44 -108 -54 -130 -11 -22 -31 -71 -46 -109 -15 -38 -31 -77 -35 -85 -22
-44 -60 -141 -60 -152 0 -5 426 -9 983 -9 l984 0 10 23 c6 13 23 54 38 93 15
38 35 88 46 111 10 24 19 46 19 49 0 3 6 20 14 37 16 36 83 203 128 317 16 41
40 100 52 130 13 30 29 71 36 90 7 19 19 49 26 65 13 29 38 91 104 263 17 42
35 86 40 97 5 11 19 45 31 75 11 30 27 69 34 85 8 17 42 100 75 185 34 85 80
200 102 255 42 101 91 224 147 370 17 44 37 91 44 105 8 14 24 54 37 90 13 36
26 70 30 75 4 6 15 33 24 60 10 28 29 75 42 105 25 59 138 343 159 400 8 19
32 80 55 135 22 55 52 129 66 165 14 36 34 84 45 107 10 24 19 46 19 49 0 3 6
20 14 37 21 49 87 211 90 222 1 6 10 27 19 49 9 21 17 41 17 45 0 3 6 17 13
31 7 14 21 48 31 75 10 28 29 75 41 105 13 30 33 80 45 110 12 30 28 69 35 85
7 17 30 73 50 125 20 52 43 109 51 127 8 17 14 34 14 37 0 3 9 25 19 49 10 23
36 85 56 137 20 52 46 114 56 137 10 24 19 46 19 49 0 3 6 20 14 37 8 18 31
75 51 127 21 52 44 109 51 125 13 29 36 88 104 263 17 42 35 86 40 97 5 11 23
55 40 97 16 43 44 113 60 155 17 43 35 87 40 98 20 44 161 393 249 620 17 44
36 89 41 100 5 11 18 43 29 70 20 50 20 44 20 -3347 l1 -3398 958 0 957 0 29
72 c15 40 43 111 61 158 65 168 96 245 105 265 5 11 21 52 35 90 14 39 29 79
35 90 14 29 120 297 125 315 2 8 20 53 39 100 19 47 73 184 121 305 47 121 93
236 102 255 8 19 28 69 43 110 34 92 86 225 104 265 7 17 23 57 36 90 12 33
29 74 36 92 8 17 14 34 14 37 0 3 9 28 21 54 43 98 49 113 49 122 0 6 9 29 19
53 10 23 36 85 56 137 20 52 41 104 45 115 5 11 32 79 60 150 28 72 55 139 59
150 10 21 68 169 146 370 25 66 55 140 65 165 11 25 38 92 60 150 22 58 45
114 49 125 5 11 25 62 45 113 81 209 109 278 121 307 7 17 34 84 59 150 26 66
51 129 56 140 5 11 34 85 65 165 30 80 62 161 71 180 9 19 29 69 44 110 26 71
121 311 140 355 23 55 82 202 85 215 2 8 16 44 30 80 15 36 40 99 56 140 16
41 34 84 39 95 5 11 21 52 35 90 14 39 30 79 35 90 5 11 34 85 65 165 30 80
60 156 67 170 20 47 59 145 63 160 3 13 54 141 81 205 5 11 10 -1488 12 -3372
l2 -3393 5129 0 c3633 0 5132 3 5136 11 4 6 14 13 24 17 9 4 64 36 124 72 59
36 120 72 135 80 23 13 102 60 152 90 51 31 210 126 295 175 196 114 270 158
297 177 15 10 30 18 32 18 3 0 29 15 59 33 63 38 49 30 266 159 96 57 195 114
220 129 25 14 72 42 104 62 31 20 59 37 61 37 2 0 55 31 117 68 243 145 280
167 307 182 15 8 53 31 85 50 32 19 73 44 92 55 19 11 71 42 117 69 46 27 121
72 168 99 47 28 97 58 112 69 15 10 30 18 32 18 3 0 29 15 58 33 29 19 60 37
68 41 8 4 24 12 35 19 65 40 374 224 394 234 13 8 51 30 85 51 34 20 73 44 88
52 15 8 54 31 85 50 32 19 70 42 86 50 15 8 57 33 95 56 37 22 123 74 192 115
69 41 133 78 142 84 9 5 43 26 75 45 32 19 70 42 85 50 53 29 193 113 220 131
15 11 30 19 32 19 3 0 29 15 58 33 29 19 60 37 68 40 8 4 29 16 45 26 17 10
149 89 295 174 146 86 270 161 276 166 6 5 29 19 50 30 48 26 112 63 201 117
37 22 124 74 193 115 69 41 133 78 142 84 9 5 47 28 85 50 37 22 76 44 85 50
10 5 74 44 144 85 70 41 154 92 188 112 33 21 68 41 76 45 8 4 53 30 100 59
190 115 379 224 389 224 8 0 11 -591 11 -2055 l0 -2055 895 0 895 0 0 2120 c0
1166 2 2120 4 2120 4 0 162 -85 186 -100 8 -5 42 -23 74 -40 33 -17 109 -59
170 -94 61 -34 122 -67 136 -74 14 -6 32 -16 40 -22 8 -5 74 -41 145 -80 72
-39 137 -75 145 -80 8 -5 41 -23 73 -40 32 -17 94 -51 137 -75 43 -24 105 -58
137 -75 32 -17 65 -35 73 -40 8 -5 58 -33 110 -61 179 -98 195 -106 240 -131
25 -14 119 -66 210 -115 229 -125 292 -159 395 -216 50 -27 115 -63 145 -80
30 -16 78 -42 105 -57 28 -15 93 -50 145 -79 52 -28 102 -56 110 -61 8 -6 22
-13 30 -17 8 -3 85 -45 170 -92 85 -48 166 -92 180 -99 14 -6 32 -16 40 -22 8
-5 74 -41 145 -80 72 -39 137 -75 145 -80 8 -6 25 -14 36 -19 12 -5 73 -39
136 -75 63 -35 141 -79 174 -96 32 -17 66 -35 74 -40 8 -5 58 -33 110 -61 97
-53 149 -82 255 -139 115 -63 370 -203 435 -238 36 -19 106 -58 155 -85 50
-27 114 -63 143 -78 28 -16 76 -42 105 -58 28 -15 95 -51 147 -80 52 -28 102
-56 110 -61 8 -6 22 -13 30 -17 8 -3 85 -45 170 -92 85 -48 166 -92 180 -99
14 -6 32 -16 40 -22 8 -5 74 -41 145 -80 72 -39 137 -75 145 -80 8 -6 25 -14
36 -19 12 -5 73 -39 136 -75 63 -35 141 -79 174 -96 32 -17 66 -35 74 -40 28
-18 271 -150 274 -150 3 0 35 -17 73 -39 63 -36 303 -168 453 -249 36 -19 119
-65 185 -101 66 -37 146 -80 177 -96 32 -17 58 -33 58 -37 0 -5 5 -8 10 -8 7
0 10 341 10 1003 l0 1003 -102 54 c-57 29 -139 72 -183 95 -208 108 -324 170
-370 195 -27 15 -104 56 -170 90 -289 151 -381 199 -560 295 -104 56 -215 114
-245 129 -30 15 -77 39 -105 54 -27 14 -140 74 -250 132 -110 58 -222 118
-250 132 -27 15 -75 39 -105 54 -30 15 -140 73 -245 129 -207 111 -354 188
-540 285 -66 34 -142 75 -170 90 -27 15 -106 57 -175 93 -115 59 -280 146
-319 167 -9 5 -83 45 -166 88 -149 79 -248 131 -480 252 -66 34 -142 75 -170
90 -45 25 -135 73 -370 196 -44 23 -105 54 -135 70 -30 15 -140 73 -245 129
-201 107 -255 135 -402 211 -51 26 -93 50 -93 53 0 4 60 37 133 75 186 96 216
112 357 186 165 88 326 173 425 225 126 66 293 153 380 200 85 45 218 115 400
210 61 31 142 74 180 95 80 43 211 112 370 195 120 63 187 98 370 196 129 69
247 131 335 176 30 15 170 89 310 163 140 74 280 148 310 163 101 52 304 159
545 287 39 21 129 68 200 105 72 37 195 102 275 145 141 75 266 141 500 263
63 32 129 67 145 77 17 10 86 47 155 82 236 123 345 180 403 211 l57 32 0
1002 0 1002 -63 -35 c-34 -19 -69 -39 -77 -45 -8 -5 -29 -16 -46 -24 -16 -7
-79 -41 -138 -75 -60 -34 -118 -66 -130 -71 -11 -5 -39 -20 -61 -34 -22 -13
-50 -28 -61 -34 -23 -10 -249 -136 -274 -152 -8 -5 -26 -15 -40 -21 -14 -7
-75 -40 -136 -74 -61 -35 -137 -77 -170 -94 -32 -17 -66 -35 -74 -40 -8 -5
-73 -41 -145 -80 -71 -39 -137 -75 -145 -80 -8 -5 -41 -23 -73 -40 -32 -17
-93 -50 -135 -74 -71 -39 -102 -56 -247 -136 -27 -15 -93 -51 -145 -80 -52
-29 -120 -66 -150 -83 -65 -35 -256 -139 -320 -175 -25 -14 -70 -38 -100 -55
-30 -16 -68 -38 -85 -47 -16 -10 -52 -30 -80 -45 -105 -57 -184 -101 -310
-170 -71 -40 -166 -91 -210 -115 -44 -23 -84 -46 -90 -50 -5 -4 -45 -26 -89
-49 -43 -23 -140 -76 -215 -118 -75 -41 -165 -91 -201 -111 -36 -19 -120 -66
-188 -104 -67 -37 -124 -68 -126 -68 -2 0 -70 -37 -152 -83 -82 -46 -185 -103
-229 -127 -44 -24 -134 -73 -200 -110 -66 -37 -156 -86 -200 -110 -44 -23
-131 -71 -192 -106 -62 -35 -115 -64 -117 -64 -2 0 -73 -39 -158 -86 -84 -48
-178 -100 -208 -116 -30 -16 -62 -33 -70 -38 -8 -5 -73 -41 -145 -80 -71 -39
-137 -75 -145 -80 -8 -6 -25 -14 -36 -19 -12 -5 -89 -47 -170 -93 -82 -46
-160 -89 -174 -96 -14 -6 -32 -16 -40 -22 -8 -5 -73 -41 -145 -80 -71 -39
-137 -75 -145 -81 -8 -5 -28 -16 -45 -23 -16 -8 -91 -49 -165 -91 -74 -42
-148 -83 -165 -91 -16 -7 -37 -18 -45 -23 -8 -6 -73 -42 -145 -81 -71 -39
-137 -75 -145 -80 -30 -18 -171 -90 -175 -90 -3 0 -5 956 -5 2125 l0 2125
-894 0 -894 0 -89 -53 c-48 -30 -144 -87 -213 -127 -177 -104 -284 -167 -369
-218 -41 -24 -88 -52 -106 -62 -18 -10 -65 -38 -106 -62 -41 -25 -130 -78
-199 -118 -69 -40 -159 -93 -200 -118 -41 -25 -95 -56 -120 -70 -25 -14 -69
-40 -98 -59 -29 -18 -56 -33 -61 -33 -5 0 -16 -6 -23 -14 -8 -7 -32 -23 -54
-35 -62 -34 -436 -254 -523 -308 -20 -13 -43 -26 -51 -30 -8 -3 -39 -21 -68
-40 -29 -18 -55 -33 -58 -33 -2 0 -17 -8 -32 -19 -21 -14 -519 -308 -619 -366
-100 -57 -142 -81 -163 -95 -14 -9 -63 -39 -110 -67 -47 -27 -138 -81 -203
-119 -131 -77 -128 -75 -217 -127 -36 -21 -72 -42 -80 -47 -104 -64 -199 -120
-204 -120 -3 0 -40 -22 -83 -49 -64 -39 -169 -102 -331 -196 -9 -6 -47 -28
-85 -50 -37 -22 -80 -47 -96 -55 -15 -9 -61 -36 -102 -62 -41 -25 -78 -47 -84
-49 -5 -2 -59 -34 -120 -70 -161 -95 -268 -159 -285 -169 -8 -5 -57 -34 -108
-64 -52 -31 -95 -56 -97 -56 -2 0 -40 -23 -84 -50 -44 -28 -83 -50 -85 -50 -2
0 -44 -24 -93 -53 -48 -30 -144 -87 -213 -127 -69 -40 -165 -97 -213 -127 -49
-29 -90 -53 -92 -53 -2 0 -40 -22 -85 -50 -45 -27 -83 -50 -85 -50 -2 0 -43
-24 -92 -53 -48 -30 -144 -87 -213 -127 -69 -40 -165 -97 -213 -127 -49 -29
-92 -53 -97 -53 -4 0 -13 -7 -20 -15 -7 -8 -16 -15 -21 -15 -5 0 -9 883 -9
2055 l0 2055 -890 0 -890 0 0 -4230 0 -4230 -2470 0 -2470 0 0 4230 0 4230
-1973 0 -1973 0 -13 -37 c-7 -21 -16 -47 -21 -58 -5 -11 -20 -49 -34 -85 -54
-144 -137 -357 -151 -388 -8 -18 -15 -37 -15 -42 0 -6 -9 -29 -19 -53 -25 -56
-121 -305 -121 -315 0 -4 -6 -18 -13 -32 -7 -14 -24 -54 -36 -90 -13 -36 -30
-78 -37 -95 -13 -30 -77 -196 -135 -350 -17 -44 -39 -100 -49 -125 -10 -25
-25 -63 -33 -85 -9 -22 -41 -104 -71 -182 -31 -78 -56 -145 -56 -149 0 -3 -6
-20 -14 -37 -8 -18 -35 -86 -61 -152 -25 -66 -50 -128 -55 -137 -6 -10 -10
-26 -10 -36 0 -10 -4 -22 -9 -28 -4 -5 -25 -54 -46 -109 -20 -55 -57 -152 -82
-215 -100 -258 -115 -296 -128 -330 -7 -19 -25 -63 -39 -96 -14 -34 -26 -64
-26 -67 0 -3 -5 -18 -12 -34 -6 -15 -12 -30 -13 -33 -2 -10 -47 -126 -60 -155
-20 -47 -115 -295 -115 -303 -1 -4 -9 -25 -20 -47 -11 -22 -19 -43 -20 -48 0
-4 -29 -80 -64 -170 -36 -89 -71 -180 -79 -202 -15 -40 -40 -106 -102 -265
-18 -47 -45 -116 -60 -155 -14 -38 -30 -79 -35 -90 -5 -11 -25 -60 -44 -110
-157 -410 -192 -501 -223 -580 -19 -49 -39 -99 -43 -110 -5 -11 -21 -51 -35
-90 -15 -38 -42 -108 -60 -155 -19 -47 -46 -116 -60 -155 -41 -107 -52 -137
-66 -170 -7 -16 -13 -32 -13 -35 -1 -3 -22 -56 -46 -119 l-45 -114 -3 3216 -2
3217 -1064 0 -1065 0 -6 -22z m22265 -3088 l0 -1120 -2061 0 -2062 0 44 23
c24 13 76 41 114 62 39 21 111 60 160 87 50 27 97 53 105 58 8 5 40 22 70 38
82 43 373 201 390 212 8 6 29 17 46 25 16 7 79 41 138 75 60 34 118 66 130 71
11 5 28 13 36 19 8 5 92 51 185 102 94 51 193 105 220 120 28 15 60 32 72 37
12 6 57 30 100 54 43 24 114 63 158 87 44 24 100 54 125 68 25 13 74 40 110
60 36 19 97 53 135 74 39 22 84 46 100 54 17 7 37 18 45 24 8 5 66 37 129 72
63 34 142 76 175 95 34 18 72 38 86 45 14 7 75 40 135 74 109 61 157 87 330
179 50 26 125 68 168 92 43 24 88 48 100 54 12 5 39 20 59 32 21 12 77 43 125
69 49 25 140 75 203 111 63 36 118 65 123 66 4 1 7 -503 7 -1119z m-2865
-2838 c-16 -10 -64 -37 -105 -59 -178 -95 -222 -120 -355 -193 -77 -42 -147
-80 -155 -83 -8 -4 -22 -11 -30 -17 -25 -16 -271 -151 -294 -161 -11 -5 -28
-13 -36 -19 -8 -5 -71 -40 -140 -78 -122 -67 -172 -94 -335 -182 -203 -110
-261 -141 -275 -150 -8 -6 -28 -17 -45 -24 -16 -8 -91 -49 -165 -91 -74 -42
-148 -83 -165 -91 -16 -7 -37 -18 -45 -24 -14 -9 -83 -46 -275 -150 -44 -24
-100 -54 -125 -68 -25 -13 -74 -40 -110 -60 -107 -57 -224 -122 -240 -132 -8
-6 -26 -16 -40 -22 -14 -7 -92 -50 -173 -95 -82 -46 -151 -83 -153 -83 -2 0
-88 -47 -191 -103 -104 -57 -228 -125 -278 -152 -88 -46 -235 -127 -265 -146
-8 -4 -36 -19 -62 -32 l-48 -24 0 1128 0 1129 2068 0 c2005 0 2066 -1 2037
-18z"/>
<path d="M42270 5090 l0 -5090 900 0 900 0 0 4240 0 4240 1665 0 1666 0 -23
-40 c-13 -22 -57 -92 -98 -157 -41 -65 -79 -125 -85 -135 -17 -29 -175 -279
-224 -353 -25 -38 -48 -74 -50 -78 -2 -5 -36 -61 -77 -125 -41 -64 -98 -155
-127 -200 -28 -46 -68 -109 -88 -140 -20 -32 -64 -102 -99 -157 -34 -55 -73
-117 -86 -137 -52 -83 -73 -116 -109 -173 -21 -33 -51 -79 -66 -102 -16 -23
-29 -44 -29 -47 0 -3 -30 -52 -66 -108 -113 -175 -242 -379 -259 -410 -10 -17
-47 -76 -160 -253 -28 -44 -82 -129 -120 -190 -67 -109 -135 -216 -155 -245
-34 -52 -90 -141 -90 -146 0 -2 -15 -26 -32 -53 -18 -26 -58 -87 -88 -135 -55
-88 -73 -117 -190 -301 -35 -55 -73 -116 -85 -135 -12 -19 -39 -62 -60 -95
-21 -33 -47 -76 -59 -95 -12 -19 -38 -60 -58 -90 -19 -30 -59 -93 -88 -140
-29 -47 -67 -107 -85 -135 -57 -89 -200 -315 -210 -332 -14 -23 -153 -245
-165 -263 -5 -8 -31 -49 -56 -90 -26 -41 -59 -93 -74 -115 -15 -22 -30 -48
-33 -58 -6 -16 46 -17 1006 -17 l1012 0 24 38 c28 42 44 67 131 207 35 55 77
123 95 150 17 28 49 77 70 110 21 33 48 76 60 95 109 173 161 256 165 265 3 6
26 42 51 80 25 39 104 162 174 275 70 113 146 232 167 265 21 33 43 67 48 75
6 8 31 49 56 90 26 41 57 91 69 110 12 19 49 77 81 128 33 52 75 119 95 150
20 31 64 102 99 157 106 170 141 224 224 353 36 56 66 105 66 107 0 3 15 27
33 54 17 27 56 86 85 132 28 46 86 137 127 202 41 65 75 120 75 122 0 2 24 40
53 83 28 44 76 118 104 164 29 45 87 136 128 201 41 66 75 120 75 122 0 2 15
25 33 52 17 28 57 89 87 137 30 49 64 102 75 119 11 18 51 82 89 142 38 61 83
133 101 160 18 28 60 95 95 150 35 55 76 119 92 142 15 23 28 44 28 47 0 3 30
52 66 108 104 162 161 251 230 363 l49 80 3 -4233 2 -4232 895 0 895 0 0 4240
0 4240 1625 0 c993 0 1625 -4 1625 -9 0 -5 -8 -17 -17 -27 -10 -9 -38 -45 -63
-79 -25 -34 -99 -133 -165 -219 -66 -87 -145 -190 -175 -231 -50 -67 -223
-294 -345 -453 -27 -36 -72 -95 -100 -132 -27 -37 -76 -100 -107 -141 -55 -72
-133 -175 -401 -527 -73 -96 -146 -194 -164 -219 -17 -25 -42 -57 -56 -72 -13
-14 -45 -55 -71 -91 -26 -36 -68 -93 -94 -126 -89 -116 -287 -376 -342 -449
-30 -41 -109 -145 -175 -231 -66 -86 -140 -185 -165 -219 -25 -33 -53 -70 -62
-80 -19 -23 -125 -163 -178 -235 -19 -26 -62 -82 -95 -125 -33 -42 -81 -107
-108 -143 -26 -36 -57 -76 -68 -88 -12 -13 -35 -43 -53 -67 -17 -25 -65 -89
-106 -143 -41 -54 -79 -104 -83 -112 -8 -12 58 -116 106 -167 10 -11 33 -40
49 -65 17 -25 43 -58 58 -75 15 -16 48 -59 74 -95 25 -36 68 -92 94 -126 26
-33 81 -105 122 -159 87 -114 128 -168 275 -360 59 -77 138 -180 175 -230 38
-49 88 -115 111 -145 41 -51 108 -139 234 -305 141 -186 302 -397 353 -464 32
-40 82 -106 112 -146 30 -40 89 -116 130 -170 41 -53 93 -121 115 -151 22 -29
67 -88 100 -130 33 -42 83 -107 110 -144 28 -37 73 -96 100 -132 82 -106 197
-258 238 -312 20 -28 52 -69 70 -90 17 -22 48 -61 67 -87 19 -26 51 -68 70
-94 19 -26 62 -82 95 -125 33 -42 85 -110 115 -150 61 -80 115 -151 204 -264
l58 -76 6999 0 6998 0 58 38 c32 22 108 70 168 107 61 38 147 92 192 122 46
29 85 53 88 53 3 0 45 25 93 56 142 92 186 120 202 127 8 4 42 25 75 46 33 22
96 61 140 87 44 26 91 56 105 65 23 15 52 34 182 115 83 52 238 148 286 178
96 59 158 99 184 117 15 11 30 19 33 19 3 0 32 17 63 38 32 20 66 42 77 49 11
7 44 27 74 45 83 51 102 63 168 104 60 38 181 114 253 159 19 12 60 38 90 57
30 19 98 61 150 93 52 32 132 82 177 112 46 29 85 53 88 53 5 0 27 14 197 124
48 31 90 56 93 56 3 0 42 24 88 53 45 30 132 84 192 122 126 78 158 98 235
147 30 19 83 52 118 74 35 21 91 56 125 78 34 21 77 47 95 57 18 11 63 39 100
62 74 48 167 106 193 122 26 15 118 72 166 103 23 15 86 54 139 87 54 33 119
74 145 90 130 82 330 206 474 295 28 17 82 51 120 76 39 24 79 48 90 53 12 5
27 16 34 25 7 9 17 16 22 16 5 0 33 15 62 33 87 56 203 129 377 237 91 56 181
112 200 125 19 12 103 64 185 115 83 51 181 112 218 137 38 24 84 53 103 63
l34 20 0 -2105 0 -2105 4255 0 4255 0 0 2120 0 2120 68 -37 c37 -20 117 -65
179 -99 62 -35 114 -64 116 -64 3 0 56 -29 118 -63 63 -35 150 -83 194 -107
44 -24 141 -77 215 -118 74 -41 164 -90 200 -110 125 -68 166 -90 305 -167 77
-42 178 -97 225 -122 47 -25 90 -49 95 -53 6 -4 44 -25 85 -47 156 -83 217
-117 282 -154 36 -21 77 -44 90 -49 12 -6 41 -22 63 -35 22 -14 50 -29 61 -34
12 -5 73 -39 135 -74 63 -35 124 -67 137 -71 12 -4 22 -11 22 -16 0 -5 10 -12
23 -16 18 -5 225 -117 287 -154 8 -5 41 -23 73 -40 32 -17 93 -50 135 -74 42
-23 109 -60 147 -81 83 -45 273 -148 333 -181 94 -53 130 -73 197 -109 39 -21
108 -59 155 -85 47 -26 121 -66 165 -90 44 -24 114 -62 155 -85 71 -40 114
-63 278 -151 37 -20 97 -54 134 -75 36 -21 77 -43 90 -49 12 -6 41 -21 63 -35
22 -13 50 -28 61 -34 12 -5 70 -37 130 -71 59 -34 122 -68 138 -75 17 -8 38
-19 46 -24 8 -6 74 -42 145 -81 72 -39 137 -75 145 -81 8 -5 24 -13 35 -18 11
-5 89 -48 174 -95 85 -47 155 -86 157 -86 1 0 76 -40 165 -90 89 -49 163 -90
165 -90 1 0 29 -15 61 -34 32 -18 90 -50 128 -71 39 -21 108 -59 155 -85 47
-26 121 -66 165 -90 44 -24 121 -66 170 -93 98 -54 164 -91 265 -145 55 -29
187 -102 240 -132 8 -5 44 -24 80 -43 36 -19 112 -62 170 -95 58 -33 107 -58
110 -57 3 2 4 454 2 1004 -2 941 -3 1002 -20 1008 -9 4 -137 71 -283 149 -147
78 -291 154 -320 168 -59 30 -138 71 -364 191 -201 107 -279 148 -345 181 -48
24 -449 236 -625 331 -33 18 -85 44 -115 59 -30 15 -107 55 -170 89 -118 64
-222 119 -440 233 -69 36 -190 100 -270 142 -80 43 -197 105 -260 137 -154 80
-407 214 -615 325 -38 20 -101 53 -140 73 -38 19 -97 50 -130 67 -333 177
-448 238 -495 262 -30 14 -95 48 -145 74 -49 26 -178 94 -285 151 -107 56
-202 106 -210 111 -8 5 -44 24 -80 43 -36 18 -130 68 -210 111 -80 42 -187 98
-237 124 -51 25 -93 50 -93 54 0 3 10 10 22 13 11 4 73 35 137 70 165 88 319
169 446 235 123 64 274 143 445 235 63 34 140 74 170 89 30 16 82 42 115 60
33 17 123 65 200 105 77 41 172 91 210 111 146 77 274 145 375 198 58 30 141
73 185 97 44 23 130 69 190 100 212 111 301 159 445 235 80 43 196 104 258
136 162 84 247 129 417 219 201 107 279 148 345 181 48 24 449 236 625 331 33
18 85 44 115 59 30 15 107 55 170 89 129 69 286 152 465 245 113 59 354 187
473 251 l53 29 1665 0 1664 0 0 -4090 0 -4090 900 0 900 0 0 4090 0 4090 1680
0 1680 0 0 1000 0 1000 -4247 0 -4247 0 -130 -72 c-72 -39 -157 -86 -189 -105
-32 -18 -60 -33 -62 -33 -2 0 -30 -15 -62 -34 -32 -18 -89 -50 -128 -71 -38
-21 -128 -70 -200 -110 -71 -39 -159 -88 -195 -107 -36 -19 -108 -59 -160 -88
-52 -29 -124 -69 -160 -88 -36 -19 -119 -65 -185 -102 -132 -73 -206 -114
-305 -168 -111 -60 -224 -122 -240 -132 -8 -6 -22 -13 -30 -17 -8 -3 -69 -36
-135 -73 -146 -81 -218 -121 -311 -171 -39 -21 -115 -63 -169 -94 -53 -30 -99
-55 -101 -55 -2 0 -61 -32 -132 -71 -128 -72 -183 -102 -302 -167 -36 -19 -94
-52 -130 -72 -36 -21 -92 -52 -125 -69 -33 -18 -67 -36 -75 -41 -8 -5 -73 -41
-145 -80 -71 -39 -137 -75 -145 -80 -8 -6 -26 -16 -40 -22 -14 -7 -92 -50
-174 -96 -81 -46 -158 -88 -170 -93 -11 -5 -28 -13 -36 -19 -8 -5 -73 -41
-145 -80 -71 -39 -137 -75 -145 -80 -8 -6 -26 -16 -40 -22 -14 -7 -92 -50
-174 -96 -81 -46 -158 -88 -170 -93 -11 -5 -28 -13 -36 -19 -8 -5 -73 -41
-145 -80 -71 -39 -137 -75 -145 -81 -8 -5 -26 -15 -40 -21 -14 -7 -92 -50
-174 -96 -81 -46 -158 -88 -170 -93 -11 -5 -28 -13 -36 -19 -25 -16 -251 -141
-274 -151 -11 -6 -39 -21 -61 -34 -22 -14 -49 -29 -60 -34 -11 -5 -89 -47
-174 -95 -84 -47 -155 -86 -157 -86 -4 0 -320 -175 -344 -190 -8 -6 -22 -13
-30 -17 -8 -3 -69 -36 -135 -73 -66 -37 -156 -86 -200 -110 -44 -24 -147 -81
-229 -127 -82 -46 -150 -83 -152 -83 -2 0 -60 -31 -128 -70 -69 -38 -128 -70
-131 -70 -3 0 -5 956 -5 2125 l0 2125 -895 0 -895 0 0 -4230 0 -4230 -2465 0
-2465 0 0 4230 0 4230 -895 0 -895 0 -2 -2105 -3 -2106 -85 56 c-47 30 -105
66 -130 80 -25 14 -65 39 -90 55 -25 16 -67 43 -95 60 -27 17 -79 49 -115 72
-36 22 -74 46 -85 52 -11 6 -51 32 -90 56 -38 25 -92 59 -119 75 -93 56 -136
82 -306 190 -19 12 -60 38 -90 57 -30 19 -98 61 -150 93 -52 32 -133 83 -180
112 -47 30 -155 97 -240 150 -85 52 -189 117 -230 143 -180 114 -235 148 -320
200 -89 55 -218 135 -340 212 -36 22 -87 54 -115 70 -27 17 -72 45 -100 63
-104 67 -224 142 -325 203 -30 18 -82 51 -115 72 -33 22 -69 44 -80 50 -11 5
-50 29 -87 52 -37 24 -102 65 -145 92 -43 27 -94 59 -113 71 -19 12 -84 53
-145 90 -60 37 -126 77 -145 90 -19 12 -62 39 -95 60 -33 20 -72 46 -87 56
-15 11 -30 19 -33 19 -5 0 -26 13 -197 124 -48 31 -90 56 -93 56 -3 0 -42 24
-88 53 -45 30 -107 69 -137 87 -30 19 -80 49 -110 68 -91 58 -120 76 -235 147
-60 38 -147 92 -192 122 -46 29 -85 53 -88 53 -3 0 -45 25 -93 56 -170 110
-192 124 -197 124 -3 0 -42 24 -88 53 -45 30 -125 80 -177 112 -52 32 -117 73
-145 90 -27 18 -71 45 -96 61 -26 16 -82 51 -125 79 -44 27 -108 67 -144 89
-36 21 -87 53 -115 70 -27 18 -72 46 -100 64 -27 17 -55 36 -62 42 -8 7 -4176
10 -13133 10 l-13120 0 0 -5090z m14318 -2907 l-3 -2098 -90 119 c-49 65 -110
144 -135 177 -215 279 -296 384 -396 514 -142 185 -244 319 -308 404 -27 36
-52 68 -55 71 -6 5 -74 92 -181 235 -30 40 -77 102 -105 138 -27 35 -84 108
-125 162 -41 54 -93 121 -115 150 -22 28 -74 95 -115 149 -41 53 -95 124 -120
156 -25 32 -60 78 -78 102 -18 23 -86 113 -152 198 -135 175 -152 198 -234
307 -33 43 -62 80 -65 83 -3 3 -32 39 -63 80 -31 41 -106 140 -168 220 -61 80
-143 187 -183 239 -40 52 -93 122 -119 155 -26 34 -73 95 -105 137 -32 41 -85
111 -118 154 -33 42 -85 112 -116 154 l-57 76 29 40 c16 22 51 67 77 101 82
106 195 255 245 322 26 36 57 76 68 88 12 13 35 43 53 67 30 43 126 170 218
288 23 31 92 121 152 200 61 79 144 188 185 243 42 54 90 119 108 143 17 25
42 57 56 72 13 14 45 55 71 91 26 36 68 92 94 126 65 84 187 244 247 324 28
37 77 102 110 144 33 43 85 110 115 151 30 40 89 117 130 170 41 53 91 118
110 144 19 27 58 77 85 113 201 262 295 385 330 432 93 125 190 252 202 264 7
8 27 35 44 60 18 26 44 61 59 77 15 17 48 59 74 95 25 36 68 92 94 126 84 108
196 256 222 292 l25 35 3 -2096 c1 -1153 1 -3041 0 -4194z m8402 2907 l0
-3370 -3310 0 -3310 0 0 3370 0 3370 3310 0 3310 0 0 -3370z m3562 3097 c29
-17 88 -55 132 -82 43 -28 97 -62 120 -76 108 -68 275 -175 311 -199 22 -15
47 -30 55 -34 8 -4 41 -23 72 -44 104 -67 448 -287 466 -297 25 -14 220 -137
317 -200 44 -29 118 -76 165 -105 132 -83 221 -140 267 -171 23 -16 44 -29 48
-29 4 0 25 -13 48 -28 43 -29 65 -43 197 -127 41 -26 91 -57 110 -70 19 -12
60 -38 90 -57 138 -87 340 -214 385 -243 28 -18 75 -48 105 -67 30 -20 119
-76 198 -127 79 -50 147 -91 151 -91 4 0 16 -9 26 -20 10 -11 22 -20 26 -20 8
0 128 -75 314 -195 159 -103 438 -280 467 -297 16 -9 46 -27 66 -40 45 -29 92
-60 192 -123 128 -81 143 -91 200 -127 127 -82 342 -217 353 -222 9 -5 9 -7 0
-12 -6 -3 -38 -22 -70 -43 -32 -21 -92 -60 -133 -87 -41 -27 -79 -51 -84 -53
-5 -2 -60 -36 -121 -75 -127 -81 -132 -85 -200 -126 -27 -17 -115 -73 -195
-125 -80 -52 -167 -108 -195 -125 -27 -16 -59 -36 -69 -43 -11 -6 -58 -36
-105 -66 -47 -30 -117 -74 -156 -99 -38 -24 -87 -55 -107 -68 -21 -13 -55 -35
-75 -48 -21 -13 -72 -45 -113 -71 -132 -84 -154 -98 -197 -127 -23 -15 -44
-28 -47 -28 -3 0 -50 -28 -103 -63 -54 -35 -140 -90 -191 -123 -52 -32 -130
-83 -174 -111 -44 -29 -82 -53 -84 -53 -3 0 -135 -83 -279 -175 -27 -18 -75
-48 -105 -67 -30 -19 -95 -61 -143 -92 -48 -31 -91 -56 -96 -56 -5 0 -14 -7
-21 -15 -6 -7 -35 -28 -63 -45 -29 -16 -61 -36 -72 -43 -10 -6 -40 -25 -66
-42 -26 -16 -89 -57 -141 -89 -51 -33 -115 -74 -143 -91 -27 -18 -78 -49 -112
-71 -178 -112 -240 -152 -284 -181 -27 -18 -51 -33 -55 -33 -3 0 -24 -13 -47
-28 -23 -16 -60 -40 -82 -54 -22 -14 -86 -55 -143 -92 -56 -36 -104 -66 -107
-66 -3 0 -40 -24 -82 -52 -43 -29 -90 -60 -104 -68 -34 -20 -160 -98 -208
-130 -62 -40 -162 -100 -167 -100 -2 0 -4 1408 -4 3130 0 1722 2 3130 4 3130
3 0 29 -15 58 -33z"/>
</g>
</svg>
